<svg id="visual" viewBox="0 0 675 900" width="675" height="900" xmlns="http://www.w3.org/2000/svg" xmlns:xlink="http://www.w3.org/1999/xlink" version="1.1"><rect x="0" y="0" width="675" height="900" fill="#ffffff"></rect><path d="M0 809L9.3 803C18.7 797 37.3 785 56.2 786.2C75 787.3 94 801.7 112.8 801.5C131.7 801.3 150.3 786.7 169 783.8C187.7 781 206.3 790 225 796.7C243.7 803.3 262.3 807.7 281.2 804.2C300 800.7 319 789.3 337.8 785.7C356.7 782 375.3 786 394 793.2C412.7 800.3 431.3 810.7 450 816C468.7 821.3 487.3 821.7 506.2 816.2C525 810.7 544 799.3 562.8 799.3C581.7 799.3 600.3 810.7 619 812.3C637.7 814 656.3 806 665.7 802L675 798L675 901L665.7 901C656.3 901 637.7 901 619 901C600.3 901 581.7 901 562.8 901C544 901 525 901 506.2 901C487.3 901 468.7 901 450 901C431.3 901 412.7 901 394 901C375.3 901 356.7 901 337.8 901C319 901 300 901 281.2 901C262.3 901 243.7 901 225 901C206.3 901 187.7 901 169 901C150.3 901 131.7 901 112.8 901C94 901 75 901 56.2 901C37.3 901 18.7 901 9.3 901L0 901Z" fill="#ffa60a"></path><path d="M0 803L9.3 809.7C18.7 816.3 37.3 829.7 56.2 830.2C75 830.7 94 818.3 112.8 818.2C131.7 818 150.3 830 169 831.2C187.7 832.3 206.3 822.7 225 814.2C243.7 805.7 262.3 798.3 281.2 802.7C300 807 319 823 337.8 829.3C356.7 835.7 375.3 832.3 394 828.7C412.7 825 431.3 821 450 816.7C468.7 812.3 487.3 807.7 506.2 812C525 816.3 544 829.7 562.8 836.2C581.7 842.7 600.3 842.3 619 835.8C637.7 829.3 656.3 816.7 665.7 810.3L675 804L675 901L665.7 901C656.3 901 637.7 901 619 901C600.3 901 581.7 901 562.8 901C544 901 525 901 506.2 901C487.3 901 468.7 901 450 901C431.3 901 412.7 901 394 901C375.3 901 356.7 901 337.8 901C319 901 300 901 281.2 901C262.3 901 243.7 901 225 901C206.3 901 187.7 901 169 901C150.3 901 131.7 901 112.8 901C94 901 75 901 56.2 901C37.3 901 18.7 901 9.3 901L0 901Z" fill="#ff9421"></path><path d="M0 850L9.3 847C18.7 844 37.3 838 56.2 837.7C75 837.3 94 842.7 112.8 840.8C131.7 839 150.3 830 169 831.8C187.7 833.7 206.3 846.3 225 845.3C243.7 844.3 262.3 829.7 281.2 825.7C300 821.7 319 828.3 337.8 833.5C356.7 838.7 375.3 842.3 394 845.5C412.7 848.7 431.3 851.3 450 846.8C468.7 842.3 487.3 830.7 506.2 831.2C525 831.7 544 844.3 562.8 848C581.7 851.7 600.3 846.3 619 842C637.7 837.7 656.3 834.3 665.7 832.7L675 831L675 901L665.7 901C656.3 901 637.7 901 619 901C600.3 901 581.7 901 562.8 901C544 901 525 901 506.2 901C487.3 901 468.7 901 450 901C431.3 901 412.7 901 394 901C375.3 901 356.7 901 337.8 901C319 901 300 901 281.2 901C262.3 901 243.7 901 225 901C206.3 901 187.7 901 169 901C150.3 901 131.7 901 112.8 901C94 901 75 901 56.2 901C37.3 901 18.7 901 9.3 901L0 901Z" fill="#fe8330"></path><path d="M0 869L9.3 866.7C18.7 864.3 37.3 859.7 56.2 854.2C75 848.7 94 842.3 112.8 842.7C131.7 843 150.3 850 169 855.2C187.7 860.3 206.3 863.7 225 860.7C243.7 857.7 262.3 848.3 281.2 847C300 845.7 319 852.3 337.8 855.8C356.7 859.3 375.3 859.7 394 861.5C412.7 863.3 431.3 866.7 450 866.7C468.7 866.7 487.3 863.3 506.2 858.3C525 853.3 544 846.7 562.8 847.8C581.7 849 600.3 858 619 861.8C637.7 865.7 656.3 864.3 665.7 863.7L675 863L675 901L665.7 901C656.3 901 637.7 901 619 901C600.3 901 581.7 901 562.8 901C544 901 525 901 506.2 901C487.3 901 468.7 901 450 901C431.3 901 412.7 901 394 901C375.3 901 356.7 901 337.8 901C319 901 300 901 281.2 901C262.3 901 243.7 901 225 901C206.3 901 187.7 901 169 901C150.3 901 131.7 901 112.8 901C94 901 75 901 56.2 901C37.3 901 18.7 901 9.3 901L0 901Z" fill="#f9733c"></path><path d="M0 869L9.3 869.8C18.7 870.7 37.3 872.3 56.2 871.8C75 871.3 94 868.7 112.8 869.2C131.7 869.7 150.3 873.3 169 872.5C187.7 871.7 206.3 866.3 225 866.3C243.7 866.3 262.3 871.7 281.2 873C300 874.3 319 871.7 337.8 868.3C356.7 865 375.3 861 394 863C412.7 865 431.3 873 450 875.2C468.7 877.3 487.3 873.7 506.2 870.3C525 867 544 864 562.8 865.8C581.7 867.7 600.3 874.3 619 876.5C637.7 878.7 656.3 876.3 665.7 875.2L675 874L675 901L665.7 901C656.3 901 637.7 901 619 901C600.3 901 581.7 901 562.8 901C544 901 525 901 506.2 901C487.3 901 468.7 901 450 901C431.3 901 412.7 901 394 901C375.3 901 356.7 901 337.8 901C319 901 300 901 281.2 901C262.3 901 243.7 901 225 901C206.3 901 187.7 901 169 901C150.3 901 131.7 901 112.8 901C94 901 75 901 56.2 901C37.3 901 18.7 901 9.3 901L0 901Z" fill="#f26447"></path></svg>